# xmcd
#
# Track frame offsets:
#	150
#	14679
#	24619
#	38856
#	50892
#	61577
#	71301
#	83317
#	101293
#	115921
#	128829
#	140529
#	150828
#	164260
#	178571
#	188538
#	202798
#	217128
#	230193
#	252516
#
# Disc length: 3499
#
# Revision: 1
# Processed by: cddbd v1.5.1PL0 Copyright (c) Steve Scherf et al.
# Submitted via: CDex 1.50
# Normalized: r0:TDELIM( - )
#
DISCID=090da914
DTITLE=Ryman - Country Homecoming 3
DYEAR=1900
DGENRE=Country
TTITLE0=Roy Clark and Chet Atkins - Alabama Jubilee
TTITLE1=Lynn Anderson - Rocky Top
TTITLE2=Willie Nelson - Family Bible
TTITLE3=T. G. Sheppard - Loved 'em Everyone
TTITLE4=Crystal Gayle - Ready For The Times To Get Better
TTITLE5=Ronnie McDowell - Older Women
TTITLE6=Glen Campbell - By Time I Get To Phoenix
TTITLE7=Roy Clark - Folsom Prison Blues
TTITLE8=Barbara Fairchild and Waylon Jennings - Teddy Bear Song
TTITLE9=Gene Watson - Got No Reason Now For Going Home
TTITLE10=Crystal Gayle - Talkin' In Your Sleep
TTITLE11=Joe Stampley - Roll On Big Mama
TTITLE12=Ricky Van Shelton - Statue Of A Fool
TTITLE13=Hank Thompson - Wild Side Of Life
TTITLE14=Geezinslaw Brothers - Somewhere Over The Rainbow
TTITLE15=Janie Fricke - Pass Me By
TTITLE16=Lorrie Morgan - Five Minutes
TTITLE17=Waylon Jennings - Amanda
TTITLE18=Dan Seals - Everything That Glitters Is Not Gold
TTITLE19=Willie Nelson - There'll Be No Teardrops
EXTD=
EXTT0=
EXTT1=
EXTT2=
EXTT3=
EXTT4=
EXTT5=
EXTT6=
EXTT7=
EXTT8=
EXTT9=
EXTT10=
EXTT11=
EXTT12=
EXTT13=
EXTT14=
EXTT15=
EXTT16=
EXTT17=
EXTT18=
EXTT19=
PLAYORDER=
